<svg xmlns="http://www.w3.org/2000/svg" viewBox="0 0 1000 940" fill="none">
  <defs>
    <linearGradient id="bg" x2="1000" y2="940" gradientUnits="userSpaceOnUse"><stop stop-color="#e7edda"/><stop offset="1" stop-color="#cedbbd"/></linearGradient>
    <linearGradient id="leaf" x2="200" y2="200" gradientUnits="userSpaceOnUse"><stop stop-color="#7a956d"/><stop offset="1" stop-color="#34583e"/></linearGradient>
    <pattern id="grain" width="11" height="11" patternUnits="userSpaceOnUse"><circle cx="3" cy="6" r=".7" fill="#4c6545" opacity=".12"/></pattern>
    <g id="sprig"><path d="M0 280Q100 110 155 0" stroke="#54754f" stroke-width="5"/><path d="M24 239Q-40 140 8 111Q75 162 24 239Z" fill="#6f8961"/><path d="M40 215Q131 225 149 155Q85 146 40 215Z" fill="#466c4d"/><path d="M74 161Q12 90 54 60Q111 91 74 161Z" fill="#80966d"/><path d="M96 122Q181 122 189 62Q134 59 96 122Z" fill="#527952"/><path d="M133 53Q100 14 155 0Q172 34 133 53Z" fill="#426746"/></g>
  </defs>
  <path fill="url(#bg)" d="M0 0h1000v940H0z"/>
  <circle cx="740" cy="220" r="122" fill="#faf1d3" opacity=".85"/>
  <path d="M0 620Q220 480 440 608T1000 510V940H0Z" fill="#b9cba7"/>
  <path d="M0 777Q315 563 575 745T1000 623V940H0Z" fill="#a5bd94"/>
  <path d="M540 940C1030 803 383 681 560 581" stroke="#ecdfbd" stroke-width="90"/>
  <path d="M540 940C1030 803 383 681 560 581" stroke="#b9a47b" stroke-width="2" stroke-dasharray="7 13"/>
  <path fill="url(#grain)" d="M0 0h1000v940H0z"/>
  <use href="#sprig" transform="translate(-10 218) rotate(-24) scale(1.6)"/>
  <use href="#sprig" transform="translate(950 870) rotate(185) scale(1.3)"/>
  <use href="#sprig" transform="translate(34 894) rotate(-14) scale(.95)"/>
  <g transform="translate(270 125)">
    <rect x="12" y="18" width="460" height="476" rx="220" fill="#5b7252" opacity=".08"/>
    <rect width="460" height="476" rx="220" fill="#f9f6eb"/>
    <rect x="17" y="17" width="426" height="442" rx="205" stroke="#c4ccb2"/>
    <text x="230" y="136" text-anchor="middle" font-family="Arial,sans-serif" font-size="14" letter-spacing="4" fill="#7a866d">THE ADVENTURE LEADS TO</text>
    <text x="230" y="224" text-anchor="middle" font-family="Georgia,serif" font-size="78" fill="#304e3e">Paps</text>
    <text x="230" y="267" text-anchor="middle" font-family="Georgia,serif" font-size="26" font-style="italic" fill="#ad6e48">a place to celebrate</text>
    <path d="M187 304h86" stroke="#c4ccb2"/>
    <text x="230" y="344" text-anchor="middle" font-family="Arial,sans-serif" font-size="16" letter-spacing="2" fill="#637458">VACOAS-PHOENIX</text>
    <text x="230" y="374" text-anchor="middle" font-family="Arial,sans-serif" font-size="13" letter-spacing="4" fill="#8c967e">MAURITIUS</text>
  </g>
  <g transform="translate(501 551)"><ellipse cx="49" cy="93" rx="48" ry="12" fill="#5f7753" opacity=".18"/><path d="M49 0C-2 0-10 52 14 79L49 113 84 79C108 52 100 0 49 0Z" fill="#b9754e"/><circle cx="49" cy="43" r="17" fill="#f8ebd0"/><path d="M49 22v42M28 43h42" stroke="#f8ebd0" stroke-width="2" opacity=".4"/></g>
  <g stroke="#fcf6dc" stroke-width="3"><path d="M192 403v34m-17-17h34"/><path d="M819 501v25m-13-12h26"/></g>
</svg>
